<svg xmlns="http://www.w3.org/2000/svg" viewBox="0 0 96 96" fill="none">
  <defs>
    <linearGradient id="azure-a" x1="58.97" y1="7.41" x2="14.78" y2="89.57" gradientUnits="userSpaceOnUse">
      <stop offset="0" stop-color="#114a8b"/>
      <stop offset="1" stop-color="#0669bc"/>
    </linearGradient>
    <linearGradient id="azure-b" x1="60.23" y1="49.55" x2="53.86" y2="51.86" gradientUnits="userSpaceOnUse">
      <stop offset="0" stop-opacity=".3"/>
      <stop offset=".07" stop-opacity=".2"/>
      <stop offset=".32" stop-opacity=".1"/>
      <stop offset=".62" stop-opacity=".05"/>
      <stop offset="1" stop-opacity="0"/>
    </linearGradient>
    <linearGradient id="azure-c" x1="50.38" y1="5.25" x2="79.12" y2="88.02" gradientUnits="userSpaceOnUse">
      <stop offset="0" stop-color="#3ccbf4"/>
      <stop offset="1" stop-color="#2892df"/>
    </linearGradient>
  </defs>
  <path d="M33.34 8h26.04L31.5 82.22c-.93 2.65-3.42 4.43-6.25 4.43H10.2c-3.65 0-6.15-3.67-4.85-7.12L31.09 12.4A6.6 6.6 0 0 1 37.34 8z" fill="url(#azure-a)"/>
  <path d="M67.25 54.96H34.16a2.98 2.98 0 0 0-2.03 5.16l23.88 22.17c1.2 1.11 2.76 1.73 4.38 1.73h21.72L67.25 54.96z" fill="url(#azure-b)"/>
  <path d="M33.34 8a6.55 6.55 0 0 0-6.24 4.56L1.42 79.34a4.87 4.87 0 0 0 4.6 6.48l16.42.02a6.86 6.86 0 0 0 5.79-4.07l4.3-11.57 15.82 14.7a6.7 6.7 0 0 0 4.24 1.52h21.78l-9.52-28.38-26.8.01L59.64 8z" fill="url(#azure-c)"/>
</svg>